<svg id="Layer_1" data-name="Layer 1" xmlns="http://www.w3.org/2000/svg" viewBox="0 0 564.94 142.68"><defs><style>.cls-1{fill:#bf5700;}.cls-2{fill:#323f48;}</style></defs><title>orange_dol_wide</title><rect class="cls-1" x="6.7" y="118.74" width="128.34" height="12.83"/><path class="cls-1" d="M8.18,95.86c0-10.47,6.84-15.46,14-15.46s14,5,14,15.46-6.84,15.46-14,15.46S8.18,106.33,8.18,95.86Zm21.54,0c0-6.24-2.9-10-7.49-10s-7.49,3.78-7.49,10S17.6,106,22.23,106,29.72,102.1,29.72,95.86Z"/><path class="cls-1" d="M45,110.76V81h9.14c9.1,0,15.94,3.86,15.94,14.73,0,11.19-7,15.05-15.94,15.05Zm6.52-5.31h3.06c6.48,0,8.94-2.9,8.94-9.66,0-6.36-2.5-9.34-9-9.34h-3Z"/><path class="cls-1" d="M78.82,110.76V81H99.11v5.47H85.38v6.4h9.94V98H85.38v7.41H99.83v5.31Z"/><path class="cls-1" d="M108.33,110.76V81h6.56l12.48,19h.08V81h6v29.79h-6l-13-19.16h-.08v19.16Z"/><rect class="cls-1" x="20.72" y="3.23" width="30.57" height="11.68"/><rect class="cls-1" x="6.7" y="17.24" width="11.69" height="30.57"/><rect class="cls-1" x="20.72" y="17.24" width="30.57" height="30.57"/><rect class="cls-1" x="6.7" y="3.23" width="11.69" height="11.68"/><rect class="cls-1" x="53.62" y="50.14" width="81.42" height="22.3"/><rect class="cls-1" x="53.62" y="3.23" width="81.42" height="44.58"/><rect class="cls-1" x="6.7" y="50.14" width="44.59" height="22.3"/><path class="cls-1" d="M152.58,110.76V81h6.52v29.79Z"/><path class="cls-1" d="M169.56,110.76V81h6.56l12.48,19h.08V81h6v29.79h-6l-13-19.16h-.08v19.16Z"/><path class="cls-1" d="M203.25,104l5-2.94a8.84,8.84,0,0,0,8.05,5.07c3,0,5.19-1.13,5.19-3.42s-2.13-3.22-6-4.31c-5.31-1.49-10.87-2.86-10.87-9.1,0-5.56,4.35-8.9,10.75-8.9a13.38,13.38,0,0,1,11.83,6.12L222.58,90a8.87,8.87,0,0,0-7.33-4.23c-2.78,0-4.31,1.21-4.31,3,0,2.37,2.21,3.22,6.12,4.31,5.23,1.41,10.79,3.06,10.79,9.22,0,4.79-3.62,9.06-11.91,9.06C209.49,111.32,205.47,108.26,203.25,104Z"/><path class="cls-1" d="M242.3,110.76V86.44h-8.86V81h24.31v5.47h-8.9v24.31Z"/><path class="cls-1" d="M266,110.76V81h6.52v29.79Z"/><path class="cls-1" d="M289.71,110.76V86.44h-8.86V81h24.31v5.47h-8.9v24.31Z"/><path class="cls-1" d="M312.66,99.36V81h6.56V99.2c0,4.31,1.65,6.72,5.56,6.72s5.47-2.37,5.47-6.72V81h6.44V99.32c0,7.33-3.7,11.92-12,11.92S312.66,106.65,312.66,99.36Z"/><path class="cls-1" d="M353,110.76V86.44h-8.86V81h24.31v5.47h-8.9v24.31Z"/><path class="cls-1" d="M376.46,110.76V81h20.29v5.47H383v6.4H393V98H383v7.41h14.45v5.31Z"/><path class="cls-2" d="M152.5,123.59h7.8v1.19h-6.52v4.59h4.83v1.15h-4.83v6.39H152.5Z"/><path class="cls-2" d="M161,130.25c0-4.18,2.36-6.91,5.62-6.91s5.62,2.74,5.62,6.91-2.36,6.91-5.62,6.91S161,134.43,161,130.25Zm10,0c0-3.62-1.82-5.74-4.34-5.74s-4.34,2.12-4.34,5.74,1.82,5.76,4.34,5.76S171,133.87,171,130.25Z"/><path class="cls-2" d="M174.66,123.59h4.47c3,0,4.63,1.26,4.63,3.6,0,2.16-1.26,3.24-3.19,3.6l3.37,6.12h-1.44l-3.26-6h-3.31v6h-1.26ZM179,129.8c2.2,0,3.44-.63,3.44-2.56s-1.22-2.48-3.46-2.48h-3.1v5Z"/><path class="cls-2" d="M189.44,130.2c0-4,2.21-6.86,5.55-6.86,2.7,0,4.2,1.6,4.83,4.07l-1.22.31c-.59-2.11-1.58-3.2-3.62-3.2-2.57,0-4.25,2.23-4.25,5.65,0,3.69,1.69,5.85,4.29,5.85,2,0,3.22-1.15,3.8-3.38l1.22.27c-.65,2.63-2.38,4.27-5,4.27C191.62,137.17,189.44,134.45,189.44,130.2Z"/><path class="cls-2" d="M201.48,130.25c0-4.18,2.36-6.91,5.62-6.91s5.62,2.74,5.62,6.91-2.36,6.91-5.62,6.91S201.48,134.43,201.48,130.25Zm10,0c0-3.62-1.82-5.74-4.34-5.74s-4.34,2.12-4.34,5.74,1.82,5.76,4.34,5.76S211.44,133.87,211.44,130.25Z"/><path class="cls-2" d="M215.12,123.59h1.66l4.46,11.67h0l4.43-11.67h1.69v13.32h-1.28V125.75h0c-.18.59-.5,1.48-.83,2.34l-3.46,8.82h-1.17l-3.46-8.82c-.32-.86-.54-1.42-.83-2.38h0v11.2h-1.19Z"/><path class="cls-2" d="M230.44,123.59h4.43c2.9,0,4.66,1.19,4.66,3.64,0,2.68-2,3.78-4.79,3.78h-3v5.91h-1.28Zm4.39,6.28c2.2,0,3.42-.68,3.42-2.61s-1.21-2.5-3.44-2.5h-3.1v5.11Z"/><path class="cls-2" d="M241.17,132.41v-8.82h1.28v8.61c0,2.18,1.1,3.8,3.58,3.8s3.56-1.55,3.56-3.76v-8.64h1.28v8.79a4.49,4.49,0,0,1-4.86,4.77C242.74,137.15,241.17,135.06,241.17,132.41Z"/><path class="cls-2" d="M257,124.78h-4.3v-1.19h9.88v1.19h-4.3v12.14H257Z"/><path class="cls-2" d="M266.59,123.54H268l4.72,13.38h-1.33l-1.42-4.11h-5.4l-1.42,4.11h-1.24Zm3,8.14-2.29-6.63h0l-2.29,6.63Z"/><path class="cls-2" d="M276.27,124.78H272v-1.19h9.88v1.19h-4.3v12.14h-1.28Z"/><path class="cls-2" d="M284,123.59h1.28v13.32H284Z"/><path class="cls-2" d="M287.86,130.25c0-4.18,2.36-6.91,5.62-6.91s5.62,2.74,5.62,6.91-2.36,6.91-5.62,6.91S287.86,134.43,287.86,130.25Zm10,0c0-3.62-1.82-5.74-4.34-5.74s-4.34,2.12-4.34,5.74S291,136,293.48,136,297.82,133.87,297.82,130.25Z"/><path class="cls-2" d="M301.5,123.59h1.37l7.35,11h0v-11h1.21v13.32h-1.13l-7.58-11.33h0v11.33H301.5Z"/><path class="cls-2" d="M318.17,123.54h1.39l4.72,13.38h-1.33l-1.42-4.11h-5.4l-1.42,4.11h-1.24Zm3,8.14-2.29-6.63h0l-2.29,6.63Z"/><path class="cls-2" d="M326.27,123.59h1.28v12.15h6.52v1.17h-7.8Z"/><path class="cls-2" d="M339.07,123.59h8v1.19h-6.68v4.52h5v1.15h-5v5.29h7.06v1.17h-8.34Z"/><path class="cls-2" d="M349.58,123.59h1.37l7.35,11h0v-11h1.21v13.32H358.4l-7.58-11.33h0v11.33h-1.21Z"/><path class="cls-2" d="M361.95,130.2c0-4.2,2.34-6.86,5.56-6.86,2.52,0,4.16,1.42,4.84,4.09l-1.22.29c-.63-2.2-1.66-3.2-3.64-3.2-2.3,0-4.27,1.89-4.27,5.64S365,136,367.53,136c2.23,0,3.71-1.57,3.69-4.27H368v-1.1h4.46v6.27h-1.15v-2h0a4.05,4.05,0,0,1-3.85,2.29C363.93,137.17,361.95,134.2,361.95,130.2Z"/><path class="cls-2" d="M375.43,123.59h1.28v13.32h-1.28Z"/><path class="cls-2" d="M379.95,123.59h1.37l7.35,11h0v-11h1.21v13.32h-1.13l-7.58-11.33h0v11.33h-1.21Z"/><path class="cls-2" d="M393,123.59h8v1.19h-6.68v4.52h5v1.15h-5v5.29h7.06v1.17H393Z"/><path class="cls-2" d="M403.47,123.59h8v1.19h-6.68v4.52h5v1.15h-5v5.29h7.06v1.17h-8.34Z"/><path class="cls-2" d="M414,123.59h4.46c3,0,4.63,1.26,4.63,3.6,0,2.16-1.26,3.24-3.19,3.6l3.37,6.12h-1.44l-3.26-6h-3.31v6H414Zm4.38,6.21c2.2,0,3.44-.63,3.44-2.56s-1.22-2.48-3.46-2.48h-3.1v5Z"/><path class="cls-2" d="M425.88,123.59h1.28v13.32h-1.28Z"/><path class="cls-2" d="M430.4,123.59h1.37l7.35,11h0v-11h1.21v13.32h-1.13l-7.58-11.33h0v11.33H430.4Z"/><path class="cls-2" d="M442.77,130.2c0-4.2,2.34-6.86,5.56-6.86,2.52,0,4.16,1.42,4.84,4.09l-1.22.29c-.63-2.2-1.66-3.2-3.64-3.2-2.3,0-4.27,1.89-4.27,5.64s1.75,5.87,4.3,5.87c2.23,0,3.71-1.57,3.69-4.27h-3.22v-1.1h4.46v6.27h-1.15v-2h0a4.05,4.05,0,0,1-3.85,2.29C444.75,137.17,442.77,134.2,442.77,130.2Z"/><path class="cls-2" d="M458.79,133.62c0-1.94,1.41-3.17,3.13-4.09a6,6,0,0,1-.92-3.06,3,3,0,0,1,3.1-3.13,2.5,2.5,0,0,1,2.79,2.56c0,1.84-1.49,3-3.37,3.91.32.49.74,1,1.22,1.67a26.67,26.67,0,0,0,2.3,2.67,7.89,7.89,0,0,0,1.4-3.89h1.21a9.5,9.5,0,0,1-1.76,4.57,4.25,4.25,0,0,0,2.7,1.13v1.13a5.46,5.46,0,0,1-3.51-1.4,5.61,5.61,0,0,1-3.89,1.48C460.24,137.17,458.79,135.75,458.79,133.62Zm7.49,1.37a27.05,27.05,0,0,1-2.54-2.88c-.5-.63-1-1.19-1.31-1.73-1.4.81-2.36,1.87-2.36,3.15,0,1.6,1.08,2.56,3.2,2.56A4.38,4.38,0,0,0,466.28,135Zm-.56-9a1.48,1.48,0,0,0-1.62-1.58,1.79,1.79,0,0,0-1.87,2A4.86,4.86,0,0,0,463,129C464.48,128.26,465.72,127.41,465.72,126Z"/><path class="cls-2" d="M475.43,133.64l1.13-.41a3.75,3.75,0,0,0,3.82,2.81c2,0,3.29-.92,3.29-2.41s-.67-2.09-3.49-3-4.32-1.67-4.32-3.87c0-1.91,1.71-3.42,4.14-3.42a4.46,4.46,0,0,1,4.57,3.06l-1.08.5a3.4,3.4,0,0,0-3.51-2.41c-1.78,0-2.86,1-2.86,2.18,0,1.49.88,2,3.69,2.9s4.14,1.8,4.14,4-2,3.64-4.63,3.64A4.8,4.8,0,0,1,475.43,133.64Z"/><path class="cls-2" d="M486.59,130.2c0-4,2.21-6.86,5.55-6.86,2.7,0,4.2,1.6,4.83,4.07l-1.22.31c-.59-2.11-1.58-3.2-3.62-3.2-2.57,0-4.25,2.23-4.25,5.65,0,3.69,1.69,5.85,4.29,5.85,2,0,3.22-1.15,3.8-3.38l1.22.27c-.65,2.63-2.38,4.27-5,4.27C488.77,137.17,486.59,134.45,486.59,130.2Z"/><path class="cls-2" d="M499.65,123.59h1.28v13.32h-1.28Z"/><path class="cls-2" d="M504.16,123.59h8v1.19h-6.68v4.52h5v1.15h-5v5.29h7.06v1.17h-8.34Z"/><path class="cls-2" d="M514.67,123.59H516l7.35,11h0v-11h1.21v13.32H523.5l-7.58-11.33h0v11.33h-1.21Z"/><path class="cls-2" d="M527,130.2c0-4,2.21-6.86,5.55-6.86,2.7,0,4.19,1.6,4.83,4.07l-1.22.31c-.59-2.11-1.58-3.2-3.62-3.2-2.57,0-4.25,2.23-4.25,5.65,0,3.69,1.69,5.85,4.29,5.85,2,0,3.22-1.15,3.8-3.38l1.22.27c-.65,2.63-2.38,4.27-5,4.27C529.22,137.17,527,134.45,527,130.2Z"/><path class="cls-2" d="M539.91,123.59h8v1.19h-6.68v4.52h5v1.15h-5v5.29h7.06v1.17h-8.34Z"/><path class="cls-2" d="M549.41,133.64l1.13-.41a3.75,3.75,0,0,0,3.82,2.81c2,0,3.29-.92,3.29-2.41s-.67-2.09-3.49-3-4.32-1.67-4.32-3.87c0-1.91,1.71-3.42,4.14-3.42a4.46,4.46,0,0,1,4.57,3.06l-1.08.5a3.4,3.4,0,0,0-3.51-2.41c-1.78,0-2.86,1-2.86,2.18,0,1.49.88,2,3.69,2.9s4.14,1.8,4.14,4-2,3.64-4.63,3.64A4.8,4.8,0,0,1,549.41,133.64Z"/></svg>