<svg id="Layer_1" data-name="Layer 1" xmlns="http://www.w3.org/2000/svg" viewBox="0 0 174.83 174.6"><defs><style>.cls-1{fill:#bf5700;}</style></defs><title>orange_block</title><rect class="cls-1" x="0.23" y="157.14" width="174.6" height="17.46"/><path class="cls-1" d="M2.25,126c0-14.24,9.31-21,19.11-21s19.06,6.79,19.06,21-9.31,21-19.06,21S2.25,140.26,2.25,126Zm29.3,0c0-8.49-3.94-13.64-10.19-13.64S11.17,117.53,11.17,126s3.89,13.86,10.19,13.86S31.54,134.51,31.54,126Z"/><path class="cls-1" d="M52.35,146.28V105.76H64.78c12.38,0,21.69,5.26,21.69,20,0,15.22-9.47,20.48-21.69,20.48Zm8.87-7.23h4.16c8.82,0,12.16-3.94,12.16-13.14,0-8.65-3.4-12.71-12.27-12.71H61.22Z"/><path class="cls-1" d="M98.35,146.28V105.76H126v7.45H107.28v8.71H120.8V129H107.28v10.08h19.66v7.23Z"/><path class="cls-1" d="M138.49,146.28V105.76h8.93l17,25.85h.11V105.76h8.21v40.53H164.5l-17.69-26.07h-.11v26.07Z"/><rect class="cls-1" x="19.31" width="41.59" height="15.88"/><rect class="cls-1" x="0.23" y="19.06" width="15.9" height="41.59"/><rect class="cls-1" x="19.31" y="19.06" width="41.59" height="41.59"/><rect class="cls-1" x="0.23" width="15.9" height="15.88"/><rect class="cls-1" x="64.07" y="63.82" width="110.77" height="30.34"/><rect class="cls-1" x="64.07" width="110.77" height="60.65"/><rect class="cls-1" x="0.23" y="63.82" width="60.66" height="30.34"/></svg>