<svg xmlns="http://www.w3.org/2000/svg" viewBox="0 0 549.82 89.79"><defs><style>.cls-1{fill:#c55b13;}.cls-2{fill:#c55c15;}</style></defs><g id="Layer_2" data-name="Layer 2"><g id="Layer_1-2" data-name="Layer 1"><path class="cls-1" d="M33.79,87.42V62.19c4.36-.35,8.59-.48,12.73-1.07,14.24-2,21.5-14.33,15.42-26-3.32-6.37-9.79-8.52-16.88-9.21-5-.48-10.12-.09-15.6-.09V87.43H0V.5C.3.35.53.13.77.13,17.17.31,33.63-.12,50,.86c23.33,1.4,40.3,14.91,43.48,34.51C99,69.47,71.05,91.55,34.62,87.79A3.55,3.55,0,0,1,33.79,87.42Z"/><path class="cls-1" d="M486.82.16h26.84v25.6a17.2,17.2,0,0,0,2.25-.58c16-7.18,32.2.08,33.35,15.93,1.1,15.26.24,30.63.24,46.24h-27c0-6.26,0-12.39,0-18.53,0-5.91.12-11.83-.33-17.72-.1-1.33-2.31-3.5-3.61-3.54s-3.36,1.72-4.27,3.11c-.76,1.17-.46,2.93-.47,4.43,0,10.68,0,21.36,0,32.28h-27Z"/><path class="cls-1" d="M289.7,0V25.59c-4.35,0-8.54,0-12.74,0-2.12,0-4.25,0-6.37.05-3.22.15-6.66.45-6.62,4.26,0,3.62,3.44,3.92,6.45,4,5.65.13,11.31,0,17.26,0V53.74c-4.83,0-9.71,0-14.59,0a71.85,71.85,0,0,0-7.19.4c-2.64.29-3.93,1.72-3.83,4.15s1.65,3.65,4.3,3.7c5.66.11,11.32.15,17,.21,2,0,3.93,0,6.24,0V87.67c-12.38-.47-24.85,1.24-37-1.71-11-2.65-18.57-10.75-19-21.25-.52-13.83-.6-27.7,0-41.52.5-12.31,9-20.29,22.54-22.45A58,58,0,0,1,264.5.05C272.82,0,281.14,0,289.7,0Z"/><path class="cls-1" d="M191.57,23.39,181,42.1l5.36.29V61.48H148.13a30.46,30.46,0,0,1,1.09-3.07q13.14-27.79,26.4-55.54c.55-1.15,2.1-2.71,3.2-2.73C192.53,0,206.24,0,220.21,0v87.3H192.58V23.52Z"/><path class="cls-1" d="M374.62,87.47H347.77c0-7.66,0-15.17,0-22.67a68.8,68.8,0,0,0-.46-9.42c-.84-5.8-5.61-9-11.45-8-5.64,1-9.36,6.27-7.82,11.12,1.62,5.13,6.92,7.43,13.09,5.7.79-.22,1.57-.46,2.63-.77V88c-18.72,4.62-40.87-8.7-43.31-26-2.36-16.62,4.53-29.53,20.4-36.36,19.53-8.4,51.75-2.19,53.66,25.76C375.29,63.32,374.62,75.27,374.62,87.47Z"/><path class="cls-2" d="M434.79.22h26.79V24.15h11.83V50H462.33c-1.23,10.3,3.08,12.47,11.59,13.14v25c-19.35,2.27-37.7-10.12-38.84-28.06C433.81,40.34,434.79,20.45,434.79.22Z"/><path class="cls-1" d="M96.25,63.33c7.43.38,9.43-1.29,9.46-8.3.09-16.86,0-33.72,0-50.58V.21h29.44c.09,1.1.25,2.18.25,3.26,0,18.12.05,36.24,0,54.36,0,10-2.73,19.27-11.8,26-8.1,6.05-17.33,7.36-27.38,4.46Z"/><path class="cls-1" d="M391.31,87.45c0-14.33-1.33-28.62.35-42.63,1.87-15.51,16.2-24,33.71-22.4,1.51.15,3,.33,4.73.51V48.3c-.31.1-.6.31-.81.26-7.72-2-11.24.27-11.42,7.87-.22,8.93-.07,17.87-.08,26.8,0,1.35,0,2.7,0,4.22Z"/></g></g></svg>