<svg xmlns="http://www.w3.org/2000/svg" viewBox="0 0 549.77 89.98"><defs><style>.cls-1{fill:#fff;}</style></defs><g id="Layer_2" data-name="Layer 2"><g id="Layer_1-2" data-name="Layer 1"><path class="cls-1" d="M33.88,87.61V62.45c4.41-.36,8.65-.48,12.79-1.09C60.89,59.3,68.09,46.93,62,35.32A15.71,15.71,0,0,0,50,27.1c-6.59-1-13.36-1.17-20.43-1.72v62.2H0V.89C.29.7.51.43.72.43c18.93.24,38-2,56.72,1.8C81.16,7,94.11,22.3,94.22,43.82,94.37,71.3,70.07,91.71,34.72,88A3.6,3.6,0,0,1,33.88,87.61Z"/><path class="cls-1" d="M487,.45h26.86v25c5-1,9.7-2.65,14.43-2.65,11.4,0,20.09,6.51,20.91,17.6,1.14,15.62.29,31.36.29,47.28H522.7V83.51c0-10.32,0-20.64-.1-30.95,0-2.54-.45-5-4.18-5s-4.3,2.58-4.35,5c-.14,8.55-.09,17.11-.1,25.66,0,3,0,6,0,9.34H487Z"/><path class="cls-1" d="M287.85,34.21V54c-5.35,0-10.54,0-15.73,0a51.52,51.52,0,0,0-6.33.44c-2.69.36-4.26,2.07-3.46,4.26.52,1.42,2.47,3.27,3.95,3.4,5.47.48,11,.33,16.54.4,2.12,0,4.23,0,6.76,0V87.91c-12.47-.47-25.09,1.36-37.38-1.85-11-2.87-18.11-10.65-18.52-21.17-.54-13.83-.68-27.7,0-41.52C234.24,10.44,243.41,2,258,.89,268.34.1,278.87.73,289.67.73v25.1c-5.65,0-11,0-16.37,0-1.84,0-3.95-.27-5.43.43s-3.61,2.51-3.61,3.82,2.14,3.28,3.72,3.64c2.95.67,6.17.42,9.27.47C280.63,34.25,284,34.21,287.85,34.21Z"/><path class="cls-1" d="M191.59,23.79c-3.4,6-6.8,12-10.43,18.41l5.3.54v19H148.1c.57-1.43,1-2.57,1.48-3.67,8.61-18.18,17.3-36.33,25.8-54.55,1.15-2.46,2.51-3.36,5.56-3.33,13,.17,26,.07,39.31.07V87.68H192.72V24.05Z"/><path class="cls-1" d="M375.05,87.69H347.86c0-4.92.05-9.66,0-14.4-.08-5.91.12-11.85-.5-17.72s-5.71-9-11.47-7.92c-5.51,1.05-9.17,6.09-7.88,10.83,1.43,5.28,6.92,7.75,13.28,6l2.8-.75c0,7.43,0,14.59,0,21.74,0,1-.15,2-.22,2.89-20.43,4.23-41.29-9.48-43.55-27.78-2.09-16.91,7.86-29.7,21.24-34.95,19.9-7.81,51-1.57,53.07,26,.84,11.15.46,22.38.62,33.58C375.24,85.94,375.13,86.67,375.05,87.69Z"/><path class="cls-1" d="M434.59.43h27.15v24.2h11.91V50.19H462.71C460.49,57.9,464,62,473.89,63.41v24.9C457,91,438.91,79.5,435.74,64a62.88,62.88,0,0,1-1.33-12c-.15-16.23-.07-32.45-.06-48.68C434.35,2.49,434.49,1.63,434.59.43Z"/><path class="cls-1" d="M96.14,63.47c7.47.56,9.58-1.12,9.63-7.94.11-16.74,0-33.48,0-50.22V.54h29.48c.08,1.24.21,2.34.21,3.44,0,18,.05,36,0,54,0,9.89-2.62,19-11.41,25.83-7.21,5.62-15.63,7.31-24.91,5.43-1.13-.23-2.88-1.33-2.9-2C96.06,79.29,96.14,71.4,96.14,63.47Z"/><path class="cls-1" d="M417.9,87.75H391.12a3.44,3.44,0,0,1-.45-1.11c0-12.2-.17-24.4.13-36.59a26.59,26.59,0,0,1,9.81-20.62c7.9-6.6,17.49-7.62,27.66-6.44a3,3,0,0,1,2.06,2.13c.15,7.77.09,15.55.09,23.19-.66.21-.95.41-1.17.36C421.6,47,418.2,49.14,418,56.46c-.25,8.93-.09,17.86-.1,26.79Z"/></g></g></svg>