<svg xmlns="http://www.w3.org/2000/svg" viewBox="0 0 616.39 108.46"><defs><style>.cls-1{fill:#fff;}</style></defs><g id="Layer_2" data-name="Layer 2"><g id="Layer_1-2" data-name="Layer 1"><path class="cls-1" d="M91.74,106.12V76.71c4.53-.38,8.86-.39,13-1.18,12-2.29,17.68-9.35,17.43-21.18C122,43.67,116,37.1,104.15,35.46c-5.34-.73-10.87-.12-16.83-.12v70.47h-30V4.92c17.88.58,35.49.6,53,2,6.87.55,13.92,3.42,20.13,6.67,13.1,6.88,20,18.44,22.35,33,4.32,26.56-10.32,50.82-35.34,57.86A63.15,63.15,0,0,1,91.74,106.12Z"/><path class="cls-1" d="M552.24,105.72V5.83h27.47V34.31c5-1.17,9.4-3,13.88-3.12,11.83-.42,21.44,7.51,22.23,20.42,1.1,17.89.28,35.9.28,54.16H588.78V99.46c0-10.34.19-20.67-.13-31-.1-3.19,1.47-8.47-4.25-8.44-5.5,0-4.29,5-4.34,8.43-.17,10.67-.07,21.33-.07,32v5.27Z"/><path class="cls-1" d="M351.81,34.9c-6.31,0-11.63,0-16.95,0-1.82,0-3.92-.34-5.4.42-1.68.86-4.1,3-3.88,4.19.31,1.71,2.55,4.13,4.2,4.33a108.66,108.66,0,0,0,15.94.38c3.25-.1,4.43.95,4.31,4.25-.22,6-.06,11.94-.06,18.7-6.11,0-11.86-.14-17.6,0-3.65.11-8.71-.8-8.86,4.7-.17,6.11,5.22,4.84,8.94,5,6.28.22,12.56.06,19.05.06v28.1c-11.45,0-22.69,1.06-33.64-.25C302.92,103,294.61,93,294.24,78s-.36-30.3,0-45.43S304.88,7,320,6c9.29-.57,18.62-.51,27.94-.46,1.28,0,3.65,1.57,3.67,2.46C351.92,16.79,351.81,25.57,351.81,34.9Z"/><path class="cls-1" d="M279.58,105.91H251.35V33.24l-1.13-.3c-3.36,6.7-6.73,13.39-10.38,20.64l5.31.68V75.93H206.1c.52-1.57.9-3,1.45-4.26,8.7-20.68,17.47-41.33,26.09-62,1.23-3,2.65-4.34,6.15-4.27,13.12.24,26.25.09,39.79.09Z"/><path class="cls-1" d="M438.17,105.79H410.74c0-10.22.16-20.18-.08-30.12A30.88,30.88,0,0,0,408.82,65c-1.94-4.83-6.91-6.45-11.68-4.63a10.46,10.46,0,0,0-6.25,12.18,9.59,9.59,0,0,0,11,7.16c1.6-.28,3.15-.85,5-1.37v28.07c-22.28,5.88-44.21-11.82-44.87-36.13-.46-16.6,9.65-31.84,24.52-37,16.78-5.77,35.86-1,44.95,12.16,3.27,4.75,6,10.83,6.35,16.46C438.76,76.36,438.17,90.86,438.17,105.79Z"/><path class="cls-1" d="M526.71,33.5H539V62.91h-11.3c-1.42,9.54.79,12.4,11.65,15.36v28.15c-16.31,3.8-35.65-9.75-39.07-27.53A71.33,71.33,0,0,1,499.07,66c-.13-19-.07-38-.06-56.93,0-1,.18-2,.31-3.28h27.39Z"/><path class="cls-1" d="M0,78.21c8.24,0,9.73-1.63,9.78-11,.11-18.49,0-37,0-55.48V5.89H40.18V37.08c0,12,.14,24,0,36-.21,13.41-4.52,24.87-16.77,32-6.18,3.59-13,4-19.83,2.7C2.23,107.5.2,106,.17,105.06-.08,96.11,0,87.15,0,78.21Z"/><path class="cls-1" d="M494.47,61c-9.31-1.59-12.12.56-12.34,9.56-.25,9.82-.11,19.66-.14,29.49v5.7H454c0-2,0-4.13,0-6.21.06-12.5-.17-25,.26-37.49.7-20.49,16.18-33.45,36.44-30.77,1.36.18,3.58,1.8,3.61,2.81C494.59,43,494.47,52,494.47,61Z"/><path class="cls-1" d="M193,105.91h-27.6V32.43c8.48,0,16.92-.07,25.36.11.77,0,2.14,1.65,2.14,2.54C193,58.54,193,82,193,105.91Z"/><path class="cls-1" d="M179.14,0A13.64,13.64,0,0,1,193,13.31c.08,7.81-5.91,13.47-14.19,13.39s-13.72-5.36-13.74-13.19S171,0,179.14,0Z"/></g></g></svg>