<svg xmlns="http://www.w3.org/2000/svg" viewBox="0 0 616.45 108.45"><defs><style>.cls-1{fill:#c55c13;}.cls-2{fill:#c55d14;}.cls-3{fill:#c55d15;}</style></defs><g id="Layer_2" data-name="Layer 2"><g id="Layer_1-2" data-name="Layer 1"><path class="cls-1" d="M92,76.62c4.31-.32,8.49-.25,12.53-1,12.6-2.33,18.45-9.93,17.7-22.44-.64-10.55-8-17.26-20.14-18-4.64-.3-9.31,0-14.6,0v70.75H57.34V5.42c7.45,0,14.75-.24,22,.06,11.77.48,23.77.08,35.26,2.24,27.38,5.14,42.61,28.09,38.24,55.66C148.18,93,124.17,109.94,92,106.06Z"/><path class="cls-2" d="M552.38,5.73H580V34.38c4.57-1.18,8.64-3,12.79-3.19,12.34-.69,22.29,7.29,23.1,20.56,1.09,17.87.27,35.86.27,54.07H589c-.09-1.69-.25-3.44-.26-5.19-.08-11.66-.07-23.31-.21-35,0-2.65-.06-5.71-3.91-5.76s-4.49,2.85-4.51,5.85c-.07,11.49-.06,23-.08,34.47,0,1.79,0,3.59,0,5.61H552.38Z"/><path class="cls-2" d="M351.58,6.14V34.92c-5.75,0-11.2,0-16.65,0-1.83,0-4-.42-5.4.4-1.73,1-3.66,3-3.91,4.75-.16,1.11,2.52,3.64,4.11,3.8,5.45.55,11,.33,16.46.42,1,0,2,.13,3.38.22V67.19c-5.39,0-10.68,0-16,0-2,0-4.27-.36-5.9.46s-4,3-4,4.56,2.49,4.1,4.11,4.28c5.43.63,11,.39,16.46.46,2.32,0,4.64,0,7.3,0v29.89c-12.5-.87-25-.77-37.14-2.86s-19.81-12.22-20.08-24.65q-.52-23.47,0-47c.32-14.13,9.47-24.73,23.41-26C328.73,5.31,339.93,6.14,351.58,6.14Z"/><path class="cls-2" d="M251.17,105.75V33l-.81-.2L239.91,53.48l5.25.81V75.86h-39c.45-1.41.76-2.67,1.26-3.85,8.77-20.83,17.62-41.63,26.29-62.5,1.26-3,2.72-4.25,6.18-4.19,13.12.25,26.26.1,39.78.1V105.75Z"/><path class="cls-1" d="M438.8,105.87H410.7c0-4.82,0-9.59,0-14.37-.07-7.15.08-14.32-.4-21.45-.48-7.37-5-11.07-11.32-10a10.2,10.2,0,0,0-8.15,12.19c1.5,6.18,6.87,8.86,13.62,6.81.76-.23,1.53-.43,2.55-.72v28.1c-21,5.32-44.82-10.81-45-36.06-.11-16.59,9.69-31.85,24.52-37,16.75-5.79,35.76-1,45,12.06,3.06,4.34,4.8,9.8,6.28,15,1.07,3.76.93,7.92,1,11.9C438.87,83.42,438.8,94.54,438.8,105.87Z"/><path class="cls-1" d="M539.62,78.29v28.1c-16.6,3.8-35.83-9.63-39.29-27.4a55.08,55.08,0,0,1-1.14-10.39c-.11-20.81-.06-41.63-.06-62.81H527V33.34h12V63H527.56C526.6,72.94,528.56,75.41,539.62,78.29Z"/><path class="cls-1" d="M0,78.32C8.39,78.09,9.81,76.54,9.85,67c.1-18.48,0-37,0-55.45V5.77h30c.1,1.17.29,2.27.29,3.36,0,21.15.11,42.3,0,63.44-.09,13.58-4.35,25.21-16.75,32.48-6.17,3.61-13,4-19.81,2.72-1.34-.26-3.38-2-3.42-3.1C-.1,95.89,0,87.09,0,78.32Z"/><path class="cls-1" d="M482,106H454c0-2,0-3.92,0-5.82.07-12.82-.16-25.65.27-38.46C455,41.46,471,28.31,491,31.31c1.28.19,3.29,1.95,3.32,3,.27,8.79.15,17.6.15,26.43-10.2-.89-12.31,1-12.43,11.39C481.93,83.28,482,94.4,482,106Z"/><path class="cls-3" d="M165.4,32.63h27.3v73.18H165.4Z"/><path class="cls-2" d="M165.11,13.58C165.06,5.71,171,0,179.1,0a13.67,13.67,0,0,1,14,13.26c.08,7.83-5.93,13.57-14.14,13.48S165.16,21.4,165.11,13.58Z"/></g></g></svg>